<svg width="159" height="165" viewBox="0 0 159 165" fill="none" xmlns="http://www.w3.org/2000/svg">
<rect width="159" height="165" fill="white"/>
<path d="M27.7578 43.2734L33.4805 48H41.4883L44.125 45.793L44.9258 48H54.2422V41.8867L51.1953 41.0859V24.5625L45.7656 19.9922H33.5195L28.0703 24.5625V29.8359H35.5508L36.3516 26.9258H41.918L42.9531 27.7266V30.4023L32.4453 32.043L27.7578 35.6758V43.2734ZM36.0781 40.2852V38.8008L36.8398 38.1172L42.9531 36.7109V40.2852L41.918 41.125H37.0742L36.0781 40.2852ZM56.7812 48H69.9062V41.8867L68.0703 41.0859V27.7266L69.1055 26.8867H73.9492L74.9453 27.7266V41.0859L73.1094 41.8867V48H86.3125V41.8867L83.2656 41.0859V24.7188L77.543 19.9922H69.1055L66.4688 22.1992L65.668 19.9922H56.7812V26.125L59.8281 26.9258V41.0859L56.7812 41.8867V48ZM87.6992 31.5547H93.6172L94.418 26.4766H97.5039V41.125L94.0859 41.9258V48H109.223V41.9258L105.785 41.125V26.4766H108.852L109.652 31.5547H115.531V19.9922H87.6992V31.5547ZM118.91 48H133.227V41.9258L130.199 41.125V26.9258L133.227 26.125V19.9922H118.91V26.125L121.957 26.9258V41.125L118.91 41.9258V48ZM27.8896 80.2471L34.8184 86H46.7231C47.731 85.1742 48.7458 84.3413 49.7676 83.5015C50.8034 82.6476 51.8252 81.7868 52.833 80.9189V75.46H44.7915L43.9307 78.6094H38.0308L36.75 77.5806V64.332L37.9888 63.3452H43.9307L44.7915 66.4736H52.833V60.8047L46.9751 55.8916H34.5664L27.8896 61.4556V80.2471ZM56.6963 80.9189L62.8481 86H71.4565L74.291 83.6274L75.1519 86H85.167V79.4282L81.8916 78.5674V60.8047L76.0547 55.8916H62.8901L57.0322 60.8047V66.4736H65.0737L65.9346 63.3452H71.9185L73.0312 64.2061V67.0825L61.7354 68.8462L56.6963 72.7515V80.9189ZM65.6406 77.7065V76.1108L66.4595 75.376L73.0312 73.8643V77.7065L71.9185 78.6094H66.7114L65.6406 77.7065ZM87.7285 80.9189L93.8384 86H106.772L112.924 80.9189V72.3315L107.885 68.4053L97.5337 66.6836L96.5889 65.9697V64.2061L97.7017 63.3452H103.686L104.546 66.4736H112.588V60.8047L106.73 55.8916H93.5654L87.7285 60.8047V69.0142L92.8516 73.2344L103.161 74.9561L103.979 75.6699V77.7065L102.909 78.6094H96.6309L95.77 75.46H87.7285V80.9189ZM117.606 86H132.996V79.4702L129.742 78.6094V63.3452L132.996 62.4844V55.8916H117.606V62.4844L120.881 63.3452V78.6094L117.606 79.4702V86ZM29.208 144H53.0898V132.915L47.5293 131.453V115.52L64.3892 144H79.146V105.54L84.7065 104.078V92.8857H60.7534V104.078L66.2783 105.54V120.189L51.1294 92.8857H29.208V104.078L34.7686 105.54V131.453L29.208 132.915V144ZM90.1602 134.875L101.174 144H122.062C123.916 142.503 125.757 140.982 127.587 139.438C129.44 137.893 131.294 136.372 133.147 134.875V101.797L122.49 92.8857H100.818L90.1602 101.797V134.875ZM105.202 129.778V107.072L107.163 105.54H116.145L118.105 107.072V129.778L116.074 131.453H107.234L105.202 129.778Z" fill="black"/>
</svg>
