<svg width="32" height="32" viewBox="0 0 32 32" fill="none" xmlns="http://www.w3.org/2000/svg">
<circle cx="16" cy="16" r="16" fill="#40A2F5"/>
<path fill-rule="evenodd" clip-rule="evenodd" d="M23.619 11.349C23.0473 11.5973 22.4421 11.7601 21.823 11.832C22.4732 11.451 22.9616 10.8453 23.196 10.129C22.5814 10.4879 21.9107 10.7405 21.212 10.876C20.9172 10.5679 20.5627 10.3229 20.1703 10.156C19.7778 9.98908 19.3555 9.9037 18.929 9.90505C17.204 9.90505 15.803 11.284 15.803 12.983C15.803 13.225 15.831 13.46 15.885 13.683C14.6466 13.6244 13.4341 13.3081 12.3249 12.7543C11.2157 12.2006 10.2342 11.4216 9.44301 10.467C9.16576 10.9354 9.01965 11.4698 9.02001 12.014C9.02001 13.082 9.57201 14.024 10.411 14.575C9.91532 14.5597 9.43021 14.4278 8.99501 14.19V14.228C8.99501 15.719 10.072 16.964 11.502 17.246C11.041 17.3676 10.5586 17.3851 10.09 17.297C10.2946 17.9124 10.6857 18.4488 11.2089 18.8319C11.7321 19.215 12.3616 19.4258 13.01 19.435C11.898 20.2937 10.532 20.7581 9.12701 20.755C8.87401 20.755 8.62701 20.739 8.38101 20.712C9.81494 21.618 11.4769 22.0976 13.173 22.095C18.923 22.095 22.066 17.405 22.066 13.337C22.0665 13.204 22.0635 13.0709 22.057 12.938C22.6681 12.5042 23.1965 11.9643 23.617 11.344L23.619 11.349Z" fill="white"/>
</svg>
